<svg id="Layer_1" data-name="Layer 1" xmlns="http://www.w3.org/2000/svg" viewBox="0 0 293.6 335.71"><defs><style>.cls-1{fill:#e6e6e6;}</style></defs><title>csslogo</title><path class="cls-1" d="M3274,200c-47.17.17-94.33.11-141.5.11-47.33,0-94.66.08-142-.13-4.85,0-5.32,1.49-4.8,5.65,1.14,9.08,1.79,18.23,2.59,27.35q3.69,42.3,7.37,84.6c2.84,32,5.78,64,8.62,96q3.72,42.06,7.24,84.12c.32,3.79,2,5.3,5.48,6.27q56.06,15.47,112,31.23a12,12,0,0,0,6.79,0q55.74-15.65,111.55-31.07c3.76-1,5.46-2.57,5.77-6.57,1.6-20.42,3.45-40.82,5.24-61.22q3.14-35.84,6.32-71.65,3.79-42.79,7.64-85.58c2.19-24.55,4.25-49.11,6.7-73.63C3279.48,200.92,3278.42,200,3274,200Zm-49,67.24c-2.12,20.53-3.82,41.11-5.65,61.68q-4.82,54-9.59,108c-.05.5-.12,1-.17,1.49-1.2,12.46-1.19,12.49-13.46,15.9-19.88,5.53-39.79,11-59.66,16.55a14.85,14.85,0,0,1-8.28,0c-22.61-6.29-45.22-12.58-67.89-18.69-3-.82-4.43-2.12-4.69-5.28-1.35-16.93-2.72-33.86-4.39-50.76-.41-4.24,1.06-5,4.85-4.9,9.49.23,19,.17,28.49,0,2.76-.05,3.72.75,3.9,3.57.47,7.81,1.47,15.59,1.89,23.4.17,3.09,1.38,4.28,4.24,5,11.6,3,23.16,6.17,34.71,9.36a10.43,10.43,0,0,0,5.86.08c11.71-3.24,23.42-6.5,35.2-9.48,3.07-.78,3.74-2.37,4-5.22,1.37-14.24,2.82-28.49,4.6-42.69.45-3.65-.3-4.6-3.93-4.57-22.83.22-45.66.24-68.5.31-17.66.06-35.33-.05-53,.24-3.84.06-4.79-1.37-5.07-4.74-.76-8.79-1.58-17.58-2.78-26.32-.46-3.38.26-4.28,3.66-4.3,16.16-.08,32.32-.44,48.48-.64,26.66-.32,53.32-.72,80-.8,4.08,0,5-1.61,5.27-5.09.57-9.14,1.1-18.29,2.07-27.39.46-4.24-.69-5.32-4.94-5.3-42.83.23-85.66.24-128.49.31-9.85,0-9.87,0-10.66-9.89-.54-6.81-.84-13.64-1.62-20.42-.43-3.77.62-4.78,4.45-4.76,29.5.16,59,.09,88.5.09,29.33,0,58.66.08,88-.1C3224.79,261.87,3225.42,263.08,3225,267.28Z" transform="translate(-2985.53 -200.02)"/></svg>