<svg id="Layer_1" data-name="Layer 1" xmlns="http://www.w3.org/2000/svg" viewBox="0 0 293.57 335.75"><defs><style>.cls-1{fill:#e6e6e6;}</style></defs><title>htmllogo</title><path class="cls-1" d="M3284.77,594.85c-47.31.17-94.62.11-141.93.11s-94.63.08-141.94-.13c-4.86,0-5.2,1.48-4.78,5.62,1.74,16.89,3.13,33.81,4.62,50.73q3.71,42,7.39,84.08,4.29,48.51,8.63,97c1.79,20.23,3.6,40.46,5.25,60.7.27,3.31,1.56,4.79,4.82,5.69q56.52,15.57,113,31.46a10,10,0,0,0,5.8,0q56.68-15.92,113.43-31.59c3.18-.88,4.18-2.47,4.4-5.46.68-9,1.53-17.92,2.32-26.87q3.67-42,7.36-84.09,4.32-48.75,8.69-97.5c2.52-28.18,4.95-56.38,7.68-84.55C3289.87,595.91,3289.12,594.84,3284.77,594.85ZM3234.7,662c-1.09,9.26-2,18.54-2.56,27.84-.21,3.71-1.68,4.15-4.86,4.14-43.65-.1-87.3,0-131-.19-5.2,0-5.81,1.49-5.14,6.17,1.28,8.89,2,17.88,2.47,26.85.2,4.08,1.44,5.21,5.52,5.2,41.15-.15,82.31,0,123.46-.19,4.28,0,5.68.72,5.23,5.38-2.71,28.5-5.11,57-7.61,85.56-.57,6.47-1.23,12.94-1.57,19.42-.14,2.59-1.1,3.76-3.57,4.43q-34.9,9.58-69.74,19.38a11.19,11.19,0,0,1-6.32-.3c-22.61-6.29-45.19-12.65-67.82-18.83-3-.83-4.23-2-4.48-5.3-1.31-17.43-2.88-34.85-4.5-52.25-.21-2.24-.2-3.32,2.53-3.29,10.32.13,20.66.18,31,0,3.24-.06,3.44,1.78,3.64,4,.71,7.79,1.51,15.58,2.05,23.38.18,2.5.88,3.78,3.49,4.46,11.76,3.06,23.46,6.33,35.15,9.61a10.39,10.39,0,0,0,5.85-.18c11.38-3.19,22.76-6.36,34.2-9.34,2.63-.69,3.72-1.73,3.94-4.61q1.54-19.92,3.66-39.79c.39-3.72-.58-4.74-4.44-4.73-39.15.16-78.3,0-117.45.21-4.31,0-5.62-1.17-6-5.35q-4.32-50.75-9.06-101.48c-.41-4.29.48-5.61,5.11-5.57,29,.25,58,.13,87,.13s58,.1,87-.11C3234.29,656.65,3235.18,658,3234.7,662Z" transform="translate(-2995.99 -594.83)"/></svg>