<svg id="Layer_1" data-name="Layer 1" xmlns="http://www.w3.org/2000/svg" viewBox="0 0 482.24 190.53"><defs><style>.cls-1,.cls-2{fill:#e6e6e6;}.cls-2{font-size:33.58px;font-family:OpenSans-Semibold, Open Sans;font-weight:600;letter-spacing:0.02em;}</style></defs><title>logo</title><path class="cls-1" d="M2752.48,318.1H2665c-5.24,0-6.16-.92-6.16-6.19V136.46c0-5.24.93-6.16,6.2-6.16h175.44c5.22,0,6.16.94,6.16,6.2V311.93c0,5.23-.94,6.16-6.2,6.16ZM2667,185.32V309.93h171.66V185.32Zm171.57-8.22V138.39H2667V177.1Z" transform="translate(-2658.88 -130.3)"/><path class="cls-1" d="M2726.79,224.06c0,3.37.13,6.24-.1,9.08-.05.69-1.18,1.5-2,1.88-6.39,3-12.82,5.94-19.7,9.1,2,1,3.61,1.79,5.25,2.57,4.87,2.31,9.77,4.56,14.59,7a3.57,3.57,0,0,1,1.87,2.26c.23,2.75.09,5.54.09,8.64-1-.42-1.78-.69-2.49-1-9.59-4.5-19.16-9-28.78-13.49-1.45-.67-1.84-1.5-2.08-3.08-.87-5.5,1.21-8.38,6.49-10.47C2708.91,232.93,2717.5,228.43,2726.79,224.06Z" transform="translate(-2658.88 -130.3)"/><path class="cls-1" d="M2800.55,244.12c-6.93-3.19-13.33-6.19-19.78-9.06-1.48-.66-2.15-1.42-2.05-3.1.15-2.47,0-5,0-7.77,1.07.44,1.73.69,2.38,1,9.59,4.5,19.16,9,28.78,13.48,1.57.72,1.92,1.66,2.2,3.32.91,5.46-1.28,8.18-6.39,10.23-9,3.64-17.69,8.14-27,12.5,0-3.29-.13-6.23.09-9.14,0-.71,1.12-1.56,1.92-1.95,5.59-2.73,11.24-5.36,16.87-8C2798.47,245.2,2799.27,244.77,2800.55,244.12Z" transform="translate(-2658.88 -130.3)"/><path class="cls-1" d="M2772,216.33c-3.2,7-6.22,13.69-9.27,20.33-6.07,13.26-12.19,26.5-18.19,39.8-.83,1.85-1.77,2.76-3.89,2.56s-4.27,0-6.77,0c.34-.9.57-1.63.89-2.32q13.23-29,26.45-58.07c.76-1.67,1.6-2.45,3.52-2.29C2767,216.48,2769.27,216.33,2772,216.33Z" transform="translate(-2658.88 -130.3)"/><path class="cls-1" d="M2772.93,151.7h7.53v12h-7.53Z" transform="translate(-2658.88 -130.3)"/><path class="cls-1" d="M2797.24,163.64V151.8H2805v11.84Z" transform="translate(-2658.88 -130.3)"/><path class="cls-1" d="M2821.71,163.71V151.85h7.78v11.86Z" transform="translate(-2658.88 -130.3)"/><text class="cls-2" transform="translate(215.31 134.41)">WEB BASED<tspan x="0" y="46.64">PROGRAMMING</tspan></text></svg>